# xmcd
#
# Track frame offsets:
#	150
#	16467
#	29612
#	45890
#	62543
#	93235
#	117270
#	130979
#	154053
#
# Disc length: 2225 seconds
# Revision: 0
# Processed by: cddbd v1.5.2PL0 Copyright (c) Steve Scherf et al.
# Submitted via: dBpowerAMP V12.0
#
DISCID=6a08af09
DTITLE=Lowdown Hokum Orchestra - That's Showbiz
DYEAR=2015
DGENRE=Blues Jazz
TTITLE0=You Only Love Me For My Lunchbox
TTITLE1=I Got My Mojo Working
TTITLE2=Monkey Rag
TTITLE3=Reefer Man
TTITLE4=If You Want Me To Love You
TTITLE5=Blue Prelude
TTITLE6=Whatever Lola Want (Lola Gets)
TTITLE7=My Favorite Record
TTITLE8=Rise Up Children
EXTD=
EXTT0=
EXTT1=
EXTT2=
EXTT3=
EXTT4=
EXTT5=
EXTT6=
EXTT7=
EXTT8=
PLAYORDER=
